# xmcd
#
# Track frame offsets:
#	150
#	17375
#	29275
#	46041
#	60852
#	76401
#	93174
#	113500
#	136839
#	156529
#	174089
#	196522
#
# Disc length: 2986 seconds
#
# Revision: 1
# Processed by: cddbd v1.5.1PL0 Copyright (c) Steve Scherf et al.
# Submitted via: audiograbber 1.83.01
#
DISCID=770ba80c
DTITLE=$1000 Wedding - Nadine압 Probably Right
DYEAR=2001
DGENRE=Country
TTITLE0=What압 Wrong With Mrs. Ray
TTITLE1=Nadine압 Probably Right
TTITLE2=Town Puke
TTITLE3=Nadine Doesn앖 Like Us
TTITLE4=Not John Cougar압 Small Town
TTITLE5=Drifting
TTITLE6=I Hate The Doors
TTITLE7=Daddios
TTITLE8=The Great Unknown
TTITLE9=I Am Not From Here
TTITLE10=Keep It Down
TTITLE11=Unassuming
EXTD=
EXTT0=
EXTT1=
EXTT2=
EXTT3=
EXTT4=
EXTT5=
EXTT6=
EXTT7=
EXTT8=
EXTT9=
EXTT10=
EXTT11=
PLAYORDER=
